PathFileType	4	(X/Y/Z)	C:\Users\Biomechanik\SynologyDrive\AlexP\Athlete_03\Athlete_3_25_03_31\Walking_07\marker_experimental.trc
DataRate	CameraRate	NumFrames	NumMarkers	Units	OrigDataRate	OrigDataStartFrame	OrigNumFrames
200.000000	200.000000	4	53	mm	200.000000	112	450
Frame#	Time	GLAB			RFHD			LFHD			C7			T6			SPINMOL			SPINM2			SPINM3			T12			BELTOL			BELT2			BELT3			SACROL			SACR2			SACR3			LTHOL			LTH2			LTH3			LSHAOL			LSHA2			LSHA3			LHEE			LTOE			LM5			RTHOL			RTH2			RTH3			RSHAOL			RSHA2			RSHA3			RHEE			RTOE			RM5			STRN			XIPH			LACR			LUAOL			LUA2			LUA3			LLAOL			LLA2			LLA3			LWRR			LWRU			RACR			RUAOL			RUA2			RUA3			RLAOL			RLA2			RLA3			RWRR			RWRU			
		X1	Y1	Z1	X2	Y2	Z2	X3	Y3	Z3	X4	Y4	Z4	X5	Y5	Z5	X6	Y6	Z6	X7	Y7	Z7	X8	Y8	Z8	X9	Y9	Z9	X10	Y10	Z10	X11	Y11	Z11	X12	Y12	Z12	X13	Y13	Z13	X14	Y14	Z14	X15	Y15	Z15	X16	Y16	Z16	X17	Y17	Z17	X18	Y18	Z18	X19	Y19	Z19	X20	Y20	Z20	X21	Y21	Z21	X22	Y22	Z22	X23	Y23	Z23	X24	Y24	Z24	X25	Y25	Z25	X26	Y26	Z26	X27	Y27	Z27	X28	Y28	Z28	X29	Y29	Z29	X30	Y30	Z30	X31	Y31	Z31	X32	Y32	Z32	X33	Y33	Z33	X34	Y34	Z34	X35	Y35	Z35	X36	Y36	Z36	X37	Y37	Z37	X38	Y38	Z38	X39	Y39	Z39	X40	Y40	Z40	X41	Y41	Z41	X42	Y42	Z42	X43	Y43	Z43	X44	Y44	Z44	X45	Y45	Z45	X46	Y46	Z46	X47	Y47	Z47	X48	Y48	Z48	X49	Y49	Z49	X50	Y50	Z50	X51	Y51	Z51	X52	Y52	Z52	X53	Y53	Z53	

113	0.5600000000000001	331.4229736328123	1566.007446289062	237.2871856689454	281.2647705078123	1594.370727539062	300.7769775390626	288.0390014648436	1584.779296875	162.8574523925782	105.95938873291	1406.3583984375	235.6786346435547	44.00899124145496	1239.625732421875	237.6285247802734	35.94999694824207	1198.557495117188	217.3003387451172	29.04648208618152	1192.234985351562	266.8804016113281	38.62039947509754	1134.715698242188	234.5877990722656	62.59125900268544	1066.9013671875	236.8453826904297	28.78988265991201	1028.802734375	215.9702453613281	25.11721611022938	1028.408569335938	266.4285278320312	22.80178070068349	967.3360595703125	239.2020721435547	43.95587921142569	923.646240234375	211.1146545410156	36.1994400024413	926.165771484375	262.5506896972656	21.91098403930654	866.294921875	236.6884155273438	242.0778198242187	638.3796997070312	64.99642944335942	220.1343841552734	568.018798828125	92.66368103027348	265.6362915039062	583.8510131835938	79.50656890869145	370.1025085449219	307.6126708984375	72.26879882812507	351.9209899902344	231.7774658203125	87.0261306762696	396.6603393554688	251.9685821533203	78.17974853515632	419.6953430175781	49.20204162597659	160.691375732422	629.9343872070312	111.7811431884766	155.4226379394532	598.361083984375	70.75721740722661	62.75757598876964	36.27569198608386	694.5773315429688	430.782958984375	69.21811676025378	624.6851806640625	449.0936584472656	27.43717193603504	634.4793090820312	422.6341857910156	-106.6843872070313	377.494873046875	420.6253967285156	-108.1868057250977	298.5590209960938	417.2134094238281	-144.6545715332032	330.5695495605469	405.14990234375	-267.9700317382813	153.2694396972656	298.7806396484374	-99.35395812988287	41.60287475585937	304.3554077148438	-143.2296295166016	42.64805221557616	409.6597900390625	273.0746459960936	1298.90478515625	238.2989349365235	284.7423095703124	1155.114624023438	247.0462036132813	179.2433929443359	1359.320190429688	61.15886688232425	134.3363800048827	1206.251220703125	-35.60065841674803	105.6971740722656	1148.273681640625	-49.78258132934568	155.3038177490234	1144.051635742188	-38.2990798950195	81.95313262939449	954.8287963867188	-84.43915557861327	28.50973892211909	900.9564208984375	-60.78081130981445	68.86154937744136	894.7780151367188	-89.9071807861328	55.88017272949216	792.5186157226562	-103.9010925292969	110.7911148071289	771.5700073242188	-52.11237335205076	190.4426116943358	1367.936645507812	404.1999206542969	187.0171508789061	1228.5537109375	512.2516479492188	217.5079040527342	1170.572143554688	523.6380615234375	168.512725830078	1171.291381835938	539.6368408203125	270.5164184570311	965.7208862304688	567.3067626953125	348.7066955566405	950.3497314453125	571.8892822265626	311.7751159667967	920.0731811523438	557.4488525390626	387.7880554199217	871.0929565429688	546.8553466796876	413.6469116210936	889.4713745117188	471.4974060058594	
114	0.5650000000000001	338.7654418945311	1565.97265625	235.9129180908204	288.5461425781248	1594.300415039062	299.3652038574219	295.4518127441405	1584.782348632812	161.446762084961	113.4367446899413	1406.101318359375	233.9702758789063	51.77268600463855	1239.2880859375	236.1217956542969	43.75560760498036	1198.210083007812	215.8392639160156	36.90602493286121	1191.896240234375	265.4153747558594	46.53628540039051	1134.3828125	233.1711730957031	70.64928436279286	1066.624755859375	235.5298309326172	37.17486953735341	1028.442626953125	214.7532043457031	33.56638717651356	1028.000610351562	265.1943359375	31.31831741332998	966.95458984375	237.9569854736328	52.17385482788077	923.26123046875	210.0147705078125	44.5038948059081	925.6326904296875	261.41796875	30.51759147644033	865.74267578125	235.5204620361328	251.4813385009765	639.1087036132812	63.84513473510747	229.227066040039	568.5222778320312	90.75183105468754	274.9118652343749	584.4739990234375	78.22676086425787	376.8930358886719	307.7067565917969	71.75534057617195	357.5860900878906	232.1810607910157	86.45183563232429	402.5879821777344	251.6969299316407	77.83359527587898	421.4385986328124	49.53526306152347	160.7154998779298	633.0306396484375	106.9354705810547	155.9066467285157	600.4807739257812	66.78193664550786	63.24465942382824	44.78149414062488	694.163818359375	429.9154052734375	77.78271484374987	624.388916015625	448.6014099121094	36.11620712280262	634.0123901367188	421.9158935546875	-99.2923583984376	378.8192749023438	420.9503479003906	-101.9862060546876	299.9183959960938	417.5149536132812	-137.9200592041017	332.4685363769531	405.3847961425781	-263.5521240234376	157.7292175292968	299.3392639160156	-99.34529113769537	41.35682678222656	304.2989501953125	-142.2033691406251	43.1473045349121	409.8214111328125	280.7393493652343	1298.955200195312	236.7892456054688	292.750274658203	1155.237548828125	245.6416778564454	186.8657989501952	1358.99169921875	59.53789520263675	142.2856292724609	1205.684326171875	-37.03005218505857	113.7476806640624	1147.645629882812	-51.18495941162107	163.3315124511718	1143.488891601562	-39.57651901245114	90.27194213867183	954.1575317382812	-85.60040283203124	36.663646697998	900.3902587890625	-62.08761596679687	77.13613891601558	894.1249389648438	-91.01132965087889	64.12755584716794	791.87646484375	-104.9076156616211	118.6917190551758	770.9102172851562	-52.73516464233396	197.8039093017576	1367.880126953125	402.6504516601563	194.2451019287108	1228.410034179688	510.6253967285157	224.5923461914061	1170.383422851562	522.04150390625	175.6038970947264	1171.17431640625	537.9989624023438	277.1201171874998	965.3480224609375	565.8067626953125	355.2565002441405	949.786865234375	570.7169799804689	318.304473876953	919.6343383789062	556.0966186523439	394.2827758789061	870.4886474609375	545.7999877929689	420.3977661132811	888.772705078125	470.5325927734376	
115	0.5700000000000001	346.1110229492186	1566.040649414062	234.5352478027344	295.828643798828	1594.328491210938	297.9485473632813	302.8715515136717	1584.892578125	160.0323638916016	120.920066833496	1405.939697265625	232.240951538086	59.55334854125964	1239.035278320312	234.5943603515625	51.58230972290028	1197.946044921875	214.3628997802734	44.77638626098621	1191.649536132812	263.937744140625	54.47698211669911	1134.136352539062	231.7466430664062	78.72295379638661	1066.44482421875	234.2267761230469	45.6087417602538	1028.197387695312	213.5911560058594	42.06628417968739	1027.708862304688	264.0209655761719	39.88999557495107	966.685791015625	236.7616271972656	60.40791320800772	922.9592895507812	208.9308471679688	52.84585571289052	925.150390625	260.301025390625	39.1938591003417	865.2470092773438	234.3457794189453	260.6632385253906	639.9170532226562	62.72168731689458	238.1391448974609	569.1284790039062	88.9437637329102	283.9777526855468	585.177734375	76.96625518798834	383.6802368164062	307.9835205078125	71.0920715332032	363.2265625	232.7808532714844	85.66387939453132	408.487548828125	251.6083221435547	77.33946228027351	422.9742736816406	50.01957702636722	160.6288146972657	635.8804321289062	102.1492996215821	156.3371887207032	602.3670043945312	62.858268737793	63.67000198364269	53.47054672241199	693.6891479492188	429.0179748535156	86.58173370361315	624.0645751953125	448.1016235351562	45.03415679931629	633.4743041992188	421.1800537109375	-91.5502929687501	380.1514282226562	421.2855224609375	-95.45817565917977	301.3048706054688	417.850830078125	-130.8226928710939	334.390869140625	405.6060485839844	-258.6660461425782	162.3481903076172	299.8528442382812	-99.25099945068365	41.12556838989257	304.2308654785156	-141.097885131836	43.74803924560546	409.956787109375	288.410675048828	1299.118286132812	235.2584686279297	300.7824401855468	1155.474853515625	244.2071380615235	194.4927673339843	1358.756713867188	57.8952674865723	150.2756042480468	1205.19970703125	-38.47476959228513	121.8563232421874	1147.092895507812	-52.60730361938474	171.4165344238281	1143.0126953125	-40.86472702026364	98.72581481933589	953.5328979492188	-86.7683639526367	44.96938323974605	899.8517456054688	-63.41522979736327	85.57433319091793	893.513671875	-92.11680603027342	72.58963775634763	791.267333984375	-105.9022903442383	126.7949676513672	770.3209838867188	-53.32210540771482	205.1628112792967	1367.912719726562	401.0870361328126	201.4484405517576	1228.349609375	508.9810180664063	231.6419830322264	1170.275024414062	520.4288330078125	182.6636962890623	1171.14208984375	536.345458984375	283.6250610351561	965.0303955078125	564.3011474609375	361.6977539062498	949.2427368164062	569.5560913085939	324.7125854492186	919.2330322265625	554.7543334960939	400.6349182128905	869.8807373046875	544.7766723632814	427.021270751953	888.0429077148438	469.5992126464844	
116	0.5750000000000001	353.4580993652342	1566.210815429688	233.1558380126954	303.1109924316405	1594.453979492188	296.5285644531251	310.2965393066405	1585.108642578125	158.6161499023438	128.4082946777343	1405.872924804688	230.4953308105469	67.34742736816395	1238.865234375	233.0515441894531	59.42654037475575	1197.764282226562	212.8772125244141	52.65378952026355	1191.494262695312	262.4529724121094	62.43660354614246	1133.975219726562	230.3216857910156	86.80364227294911	1066.362182617188	232.9456634521485	54.07382202148428	1028.076293945312	212.4914398193359	50.59966659545887	1027.54248046875	262.9153747558594	48.49589920043935	966.5391845703125	235.6237182617188	68.64876556396474	922.7437744140625	207.8706512451172	61.21689987182607	924.7216186523438	259.2084655761719	47.92557525634756	864.8128662109375	233.1701965332031	269.6090393066406	640.7972412109375	61.62166595458989	246.8560638427734	569.82958984375	87.23478698730473	292.8213500976562	585.9566040039062	75.72161102294928	390.4626770019531	308.4346923828125	70.27230072021491	368.8403625488281	233.5689697265625	84.64645385742195	414.3575744628906	251.6970367431641	76.69422912597663	424.3397216796874	50.63149261474612	160.4415283203126	638.4927368164062	97.48442840576176	156.7177581787111	604.0453491210938	59.03985214233402	64.03144836425793	62.34062194824207	693.146728515625	428.0940856933594	95.61496734619128	623.7089233398438	447.60205078125	54.19113540649403	632.8583374023438	420.4343566894531	-83.44013214111338	381.4851684570312	421.634033203125	-88.5828399658204	302.7134399414062	418.2225036621094	-123.3430480957032	336.3297119140625	405.8154602050781	-253.2826232910157	167.1263580322265	300.3145446777343	-99.04110717773443	40.92467880249023	304.148681640625	-139.904037475586	44.47492218017577	410.0606384277344	296.0845642089843	1299.395141601562	233.7100677490235	308.8309631347655	1155.825561523438	242.7460937500001	202.1228485107421	1358.61767578125	56.23567962646488	158.3055114746093	1204.802978515625	-39.93223571777341	130.0218048095703	1146.621459960938	-54.04830932617185	179.5573120117187	1142.62890625	-42.16164398193356	107.3124084472656	952.9612426757812	-87.94071197509764	53.42589950561519	899.345703125	-64.76104736328124	94.17478179931636	892.9498291015625	-93.2213668823242	81.2656326293945	790.6966552734375	-106.8835525512695	135.1012420654296	769.808349609375	-53.87320327758787	212.5172424316405	1368.037841796875	399.5132446289063	208.6236572265623	1228.375244140625	507.3221130371094	238.6562194824217	1170.249755859375	518.802734375	189.689743041992	1171.196533203125	534.6773071289062	290.0311584472655	964.7723999023438	562.7908935546875	368.0301818847655	948.7218627929688	568.4075317382814	330.9993896484373	918.8726806640625	553.4235839843751	406.8430175781248	869.2732543945312	543.7874755859376	433.5161743164061	887.2852172851562	468.6986083984376	
